# xmcd
#
# Track frame offsets:
#	150
#	14393
#	36406
#	52656
#	64849
#	84917
#	105585
#	119134
#	133025
#	153831
#	172082
#	188593
#	206551
#	226297
#	243474
#	272315
#
# Disc length: 3637 seconds
#
# Revision: 1
# Processed by: cddbd v1.5.2PL0 Copyright (c) Steve Scherf et al.
# Submitted via: audiograbber 1.83.01
#
DISCID=d10e3310
DTITLE=ALAN JACKSON - CB90357
DYEAR=2014
DGENRE=Country
TTITLE0=ALAN JACKSON - THE TALKIN' SONG REPAIR BLUES
TTITLE1=ALAN JACKSON - SMALL TOWN SOUTHERN MAN
TTITLE2=ALAN JACKSON - USA TODAY
TTITLE3=ALAN JACKSON - MEAT AND POTATO MAN
TTITLE4=ALAN JACKSON - A WOMAN'S LOVE
TTITLE5=ALAN JACKSON - MURDER ON MUSIC ROW
TTITLE6=ALAN JACKSON - SHE JUST STARTEDLIKING CHEATIN' SONG
TTITLE7=ALAN JACKSON - TROPICAL DEPRESSION
TTITLE8=ALAN JACKSON - ANOTHER GOOD REASON NOT TO DRINK
TTITLE9=ALAN JACKSON - DESIGNATED DRINKER
TTITLE10=ALAN JACKSON - WHEN SOMEBODY LOVES YOU
TTITLE11=ALAN JACKSON - IT'S ALL ABOUT HIM (MODY EDIT)
TTITLE12=ALAN JACKSON - WORK IN PROGRESS
TTITLE13=ALAN JACKSON - MY OWN KIND OF HAT
TTITLE14=ALAN JACKSON - LIKE RED ON A ROSE
TTITLE15=ALAN JACKSON - Data Track
EXTD=
EXTT0=
EXTT1=
EXTT2=
EXTT3=
EXTT4=
EXTT5=
EXTT6=
EXTT7=
EXTT8=
EXTT9=
EXTT10=
EXTT11=
EXTT12=
EXTT13=
EXTT14=
EXTT15=
PLAYORDER=
